<?xml version="1.0" encoding="utf-8"?>
<!-- Generator: Adobe Illustrator 21.0.0, SVG Export Plug-In . SVG Version: 6.00 Build 0)  -->
<svg version="1.1" id="Layer_1" xmlns="http://www.w3.org/2000/svg" xmlns:xlink="http://www.w3.org/1999/xlink" x="0px" y="0px"
	 viewBox="0 0 268.3 190" style="enable-background:new 0 0 268.3 190;" xml:space="preserve">
<style type="text/css">
	.st0{fill:url(#SVGID_1_);}
	.st1{fill:url(#SVGID_2_);}
</style>
<linearGradient id="SVGID_1_" gradientUnits="userSpaceOnUse" x1="191.9909" y1="20.599" x2="76.2865" y2="87.401">
	<stop  offset="0" style="stop-color:#55EFCB"/>
	<stop  offset="1" style="stop-color:#5BCAFF"/>
</linearGradient>
<path class="st0" d="M169.2,0h-70c-10.4,0-19,8.5-19,19v70c0,10.4,8.5,19,19,19h70c10.4,0,19-8.5,19-19V19
	C188.1,8.5,179.6,0,169.2,0z M158.8,40.4l-18,18c-2.4,2.4-6.4,2.4-8.8,0c-2.4-2.4-2.4-6.4,0-8.8L145.5,36l-9.2-9.2l-11.8,11.8V90
	c0,3.5-2.8,6.3-6.3,6.3s-6.3-2.8-6.3-6.3V36c0-1.7,0.7-3.2,1.8-4.4l18-18c2.4-2.4,6.4-2.4,8.8,0l18,18C161.2,34,161.2,38,158.8,40.4
	z"/>
<linearGradient id="SVGID_2_" gradientUnits="userSpaceOnUse" x1="0" y1="162.2793" x2="268.2773" y2="162.2793">
	<stop  offset="0" style="stop-color:#55EFCB"/>
	<stop  offset="1" style="stop-color:#5BCAFF"/>
</linearGradient>
<path class="st1" d="M6.8,169.3v20H0v-51.2h18.9c2.9,0,5.5,0.4,7.7,1.2s4.1,1.9,5.6,3.3s2.7,3,3.4,5s1.2,4,1.2,6.3
	c0,2.5-0.4,4.7-1.2,6.6s-1.9,3.6-3.4,4.9s-3.4,2.3-5.6,3s-4.8,1-7.7,1H6.8z M6.8,163.7h12.1c2,0,3.7-0.2,5.1-0.7s2.6-1.2,3.5-2.1
	s1.6-1.9,2-3.1s0.6-2.5,0.6-4c0-1.3-0.2-2.6-0.6-3.8s-1.1-2.3-2-3.3s-2.1-1.7-3.5-2.3s-3.1-0.8-5.1-0.8H6.8V163.7z M51.5,189.3H45
	v-54h6.5V189.3z M85.4,189.3c-0.2-0.5-0.4-1.1-0.6-1.8s-0.3-1.5-0.4-2.2c-0.6,0.6-1.3,1.2-2.1,1.8s-1.6,1.1-2.5,1.5s-1.9,0.8-2.9,1
	s-2.2,0.4-3.3,0.4c-1.9,0-3.7-0.3-5.3-0.9s-2.9-1.4-4-2.4s-2-2.2-2.6-3.6s-0.9-2.8-0.9-4.4c0-2,0.4-3.8,1.2-5.4s1.9-2.9,3.4-3.9
	s3.3-1.9,5.4-2.4s4.5-0.8,7.1-0.8h6.5v-3c0-2.3-0.7-4.1-2-5.4s-3.4-2-6-2c-1.2,0-2.3,0.2-3.3,0.5s-1.9,0.8-2.6,1.3s-1.3,1.2-1.7,1.9
	s-0.6,1.5-0.6,2.3h-6.5c0-1.4,0.4-2.7,1.1-4s1.7-2.5,3-3.6s2.9-1.9,4.8-2.6s3.9-1,6.2-1c2.1,0,4,0.3,5.7,0.8s3.2,1.3,4.5,2.4
	s2.2,2.4,2.9,4s1.1,3.5,1.1,5.6V181c0,1.3,0.1,2.6,0.3,4.1s0.6,2.6,1,3.7v0.6H85.4z M74.6,184.3c1.2,0,2.3-0.2,3.3-0.5
	s2-0.8,2.8-1.3s1.6-1.1,2.2-1.8s1.1-1.4,1.5-2.1v-7.8h-5.4c-3.7,0-6.6,0.6-8.6,1.7s-3,2.9-3,5.3c0,0.9,0.2,1.8,0.5,2.6
	s0.8,1.5,1.4,2.1s1.4,1,2.3,1.4S73.4,184.3,74.6,184.3z M109.9,142v9.2h7.1v5h-7.1v23.6c0,1,0.1,1.8,0.4,2.4s0.5,1.1,0.9,1.4
	s0.8,0.5,1.3,0.7s1,0.2,1.6,0.2s1.1-0.1,1.7-0.2s1.1-0.2,1.4-0.3v5.3c-0.5,0.1-1.2,0.3-2,0.5s-1.8,0.2-3,0.2c-1.2,0-2.3-0.2-3.4-0.5
	s-2-0.9-2.8-1.7s-1.4-1.8-1.9-3.1s-0.7-2.9-0.7-4.8v-23.6h-6.9v-5h6.9V142H109.9z M127.8,189.3v-33h-6v-5h6v-4c0-2,0.3-3.8,0.9-5.4
	s1.4-2.9,2.5-4s2.4-1.9,3.9-2.4s3.3-0.8,5.2-0.8c1.5,0,3,0.2,4.5,0.6l-0.4,5.3c-0.5-0.1-1-0.2-1.7-0.2s-1.2-0.1-1.8-0.1
	c-2.1,0-3.7,0.6-4.9,1.8s-1.7,3-1.7,5.3v4h8.1v5h-8.1v33H127.8z M147.8,169.9c0-2.8,0.4-5.3,1.2-7.7s2-4.4,3.4-6.1s3.3-3.1,5.4-4.1
	s4.5-1.5,7.2-1.5c2.7,0,5.1,0.5,7.3,1.5s4,2.3,5.5,4.1s2.6,3.8,3.4,6.1s1.2,4.9,1.2,7.7v0.8c0,2.8-0.4,5.3-1.2,7.7s-1.9,4.4-3.4,6.1
	s-3.3,3.1-5.4,4s-4.5,1.5-7.2,1.5s-5.1-0.5-7.2-1.5s-3.9-2.3-5.4-4s-2.7-3.8-3.5-6.1s-1.2-4.9-1.2-7.7V169.9z M154.4,170.7
	c0,1.9,0.2,3.7,0.7,5.4s1.1,3.2,2,4.4s2,2.3,3.4,3s2.9,1.1,4.7,1.1c1.8,0,3.4-0.4,4.7-1.1s2.5-1.8,3.4-3s1.6-2.8,2-4.4
	s0.7-3.5,0.7-5.4v-0.8c0-1.9-0.2-3.7-0.7-5.4s-1.1-3.2-2-4.5s-2-2.3-3.4-3.1s-2.9-1.1-4.7-1.1c-1.8,0-3.3,0.4-4.7,1.1
	s-2.5,1.8-3.4,3.1s-1.6,2.8-2,4.5s-0.7,3.5-0.7,5.4V170.7z M209,157.1c-0.6-0.1-1.1-0.2-1.6-0.2s-1-0.1-1.6-0.1
	c-2.3,0-4.1,0.5-5.5,1.5s-2.5,2.3-3.2,4v27h-6.5v-38h6.3l0.1,4.4c1-1.6,2.2-2.8,3.7-3.7s3.3-1.4,5.4-1.4c0.5,0,1,0.1,1.6,0.2
	s1,0.2,1.3,0.3V157.1z M221.1,151.3l0.2,4.2c1.3-1.5,2.9-2.8,4.8-3.6s4-1.3,6.5-1.3c2.5,0,4.6,0.5,6.5,1.5s3.3,2.5,4.3,4.7
	c1.3-1.8,2.9-3.3,4.9-4.4s4.4-1.7,7.2-1.7c2,0,3.8,0.3,5.4,0.8s2.9,1.4,4,2.5s1.9,2.6,2.5,4.3s0.8,3.8,0.8,6.2v25h-6.5v-25
	c0-1.6-0.2-2.9-0.6-4s-0.9-1.9-1.6-2.5s-1.6-1.1-2.6-1.3s-2.1-0.4-3.3-0.4c-1.3,0-2.5,0.2-3.6,0.6s-1.9,1-2.7,1.7s-1.3,1.6-1.8,2.5
	s-0.7,2-0.8,3.1v25.2h-6.5v-25c0-1.5-0.2-2.7-0.6-3.8s-0.9-1.9-1.6-2.5s-1.6-1.1-2.5-1.4s-2.1-0.5-3.4-0.5c-2.3,0-4.2,0.5-5.6,1.5
	s-2.5,2.3-3.2,3.9v27.8h-6.5v-38H221.1z"/>
</svg>
